<svg width="303" height="92" viewBox="0 0 303 92" fill="none" xmlns="http://www.w3.org/2000/svg">
<path d="M129.665 28.9741C129.665 31.1304 129.26 32.9968 128.448 34.5734C127.66 36.1269 126.605 37.4137 125.283 38.4338C123.985 39.4308 122.513 40.1727 120.867 40.6596C119.22 41.1234 117.551 41.3552 115.858 41.3552H106.677V16.7322H115.58C117.319 16.7322 119.035 16.9408 120.727 17.3582C122.42 17.7523 123.927 18.4247 125.249 19.3753C126.57 20.3027 127.637 21.5548 128.448 23.1314C129.26 24.708 129.665 26.6556 129.665 28.9741ZM123.475 28.9741C123.475 27.583 123.243 26.4353 122.779 25.5311C122.339 24.6037 121.736 23.8733 120.971 23.3401C120.229 22.7836 119.371 22.3894 118.397 22.1576C117.447 21.9257 116.461 21.8098 115.441 21.8098H112.485V36.208H115.302C116.369 36.208 117.389 36.0921 118.363 35.8602C119.359 35.6052 120.229 35.1995 120.971 34.643C121.736 34.0865 122.339 33.3446 122.779 32.4172C123.243 31.4898 123.475 30.3421 123.475 28.9741ZM133.958 41.3552V16.7322H139.939V41.3552H133.958ZM162.071 41.3552L160.158 36.521H150.629L148.82 41.3552H142.352L152.681 16.7322H158.454L168.679 41.3552H162.071ZM155.463 23.3053L152.333 31.7564H158.524L155.463 23.3053ZM171.062 41.3552V16.7322H177.044V36.1732H186.573V41.3552H171.062ZM214.329 28.9394C214.329 30.8869 213.993 32.6722 213.321 34.2952C212.648 35.895 211.709 37.2746 210.504 38.4338C209.321 39.5699 207.907 40.451 206.261 41.077C204.614 41.703 202.829 42.016 200.905 42.016C198.98 42.016 197.195 41.703 195.549 41.077C193.926 40.451 192.512 39.5699 191.306 38.4338C190.123 37.2746 189.196 35.895 188.524 34.2952C187.851 32.6722 187.515 30.8869 187.515 28.9394C187.515 26.9686 187.851 25.1949 188.524 23.6183C189.196 22.0185 190.123 20.6621 191.306 19.5492C192.512 18.4363 193.926 17.5784 195.549 16.9756C197.195 16.3728 198.98 16.0714 200.905 16.0714C202.829 16.0714 204.614 16.3728 206.261 16.9756C207.907 17.5784 209.321 18.4363 210.504 19.5492C211.709 20.6621 212.648 22.0185 213.321 23.6183C213.993 25.1949 214.329 26.9686 214.329 28.9394ZM207.965 28.9394C207.965 27.8728 207.791 26.8758 207.443 25.9484C207.095 25.021 206.608 24.2327 205.982 23.5835C205.38 22.9111 204.638 22.3894 203.757 22.0185C202.899 21.6243 201.948 21.4272 200.905 21.4272C199.861 21.4272 198.911 21.6243 198.053 22.0185C197.195 22.3894 196.453 22.9111 195.827 23.5835C195.201 24.2327 194.714 25.021 194.366 25.9484C194.042 26.8758 193.879 27.8728 193.879 28.9394C193.879 30.0523 194.053 31.084 194.401 32.0346C194.749 32.962 195.224 33.7619 195.827 34.4343C196.453 35.1067 197.195 35.64 198.053 36.0341C198.911 36.4051 199.861 36.5906 200.905 36.5906C201.948 36.5906 202.899 36.4051 203.757 36.0341C204.614 35.64 205.356 35.1067 205.982 34.4343C206.608 33.7619 207.095 32.962 207.443 32.0346C207.791 31.084 207.965 30.0523 207.965 28.9394ZM240.468 39.8597C239.262 40.4858 237.848 40.9958 236.225 41.39C234.625 41.7841 232.875 41.9812 230.974 41.9812C229.003 41.9812 227.183 41.6682 225.513 41.0422C223.867 40.4162 222.441 39.5351 221.236 38.3991C220.053 37.263 219.126 35.9066 218.453 34.33C217.781 32.7302 217.445 30.9565 217.445 29.0089C217.445 27.0381 217.781 25.2529 218.453 23.6531C219.149 22.0533 220.1 20.6969 221.305 19.584C222.511 18.4479 223.925 17.5784 225.548 16.9756C227.171 16.3728 228.922 16.0714 230.8 16.0714C232.747 16.0714 234.556 16.3728 236.225 16.9756C237.894 17.5553 239.251 18.3436 240.294 19.3405L236.538 23.6183C235.958 22.9459 235.193 22.401 234.243 21.9837C233.292 21.5432 232.214 21.3229 231.008 21.3229C229.965 21.3229 229.003 21.52 228.122 21.9141C227.241 22.2851 226.476 22.8184 225.826 23.5139C225.177 24.1863 224.667 24.9978 224.296 25.9484C223.948 26.8758 223.774 27.896 223.774 29.0089C223.774 30.145 223.937 31.1884 224.261 32.139C224.586 33.0896 225.061 33.9127 225.687 34.6082C226.336 35.2806 227.125 35.8139 228.052 36.208C229.003 36.579 230.081 36.7645 231.287 36.7645C231.982 36.7645 232.643 36.7181 233.269 36.6254C233.895 36.5094 234.475 36.3355 235.008 36.1037V31.6173H230.313V26.8179H240.468V39.8597ZM266.536 32.0694C266.536 33.5533 266.281 34.9096 265.771 36.1385C265.284 37.3441 264.577 38.3875 263.65 39.2685C262.722 40.1264 261.598 40.7988 260.276 41.2857C258.978 41.7725 257.529 42.016 255.929 42.016C254.306 42.016 252.845 41.7725 251.547 41.2857C250.248 40.7988 249.147 40.1264 248.243 39.2685C247.339 38.3875 246.643 37.3441 246.156 36.1385C245.669 34.9096 245.426 33.5533 245.426 32.0694V16.7322H251.338V31.5825C251.338 32.2549 251.419 32.8925 251.582 33.4953C251.767 34.0981 252.034 34.643 252.381 35.1299C252.752 35.5936 253.228 35.9646 253.807 36.2428C254.41 36.521 255.129 36.6601 255.964 36.6601C256.798 36.6601 257.505 36.521 258.085 36.2428C258.688 35.9646 259.175 35.5936 259.546 35.1299C259.917 34.643 260.183 34.0981 260.346 33.4953C260.508 32.8925 260.589 32.2549 260.589 31.5825V16.7322H266.536V32.0694ZM271.693 41.3552V16.7322H288.248V21.775H277.432V26.4005H287.656V31.1652H277.432V36.2776H288.874V41.3552H271.693Z" fill="#962C4C"/>
<path d="M108.599 70.6353H117.468V72.3552H106.664V53.3283H108.599V70.6353ZM122.111 72.3552H120.283V59.7781H122.111V72.3552ZM122.487 54.9408C122.487 55.317 122.353 55.6305 122.084 55.8814C121.815 56.1143 121.519 56.2307 121.197 56.2307C120.874 56.2307 120.579 56.1143 120.31 55.8814C120.041 55.6305 119.907 55.317 119.907 54.9408C119.907 54.5645 120.041 54.26 120.31 54.027C120.579 53.7762 120.874 53.6508 121.197 53.6508C121.519 53.6508 121.815 53.7762 122.084 54.027C122.353 54.26 122.487 54.5645 122.487 54.9408ZM132.135 72.3552H130.119L124.986 59.7781H127.029L131.114 70.4203H131.167L135.279 59.7781H137.241L132.135 72.3552ZM149.691 65.0992C149.637 63.9167 149.252 62.9403 148.536 62.1699C147.837 61.3816 146.833 60.9874 145.526 60.9874C144.916 60.9874 144.352 61.1039 143.833 61.3368C143.313 61.5518 142.856 61.8564 142.462 62.2505C142.068 62.6268 141.754 63.0657 141.521 63.5674C141.288 64.0511 141.154 64.5617 141.118 65.0992H149.691ZM151.545 65.6904C151.545 65.8158 151.545 65.9502 151.545 66.0935C151.545 66.2369 151.536 66.3892 151.519 66.5504H141.091C141.109 67.1775 141.235 67.7687 141.468 68.3241C141.701 68.8795 142.023 69.3632 142.435 69.7753C142.847 70.1874 143.331 70.5188 143.886 70.7696C144.442 71.0025 145.042 71.119 145.687 71.119C146.636 71.119 147.452 70.904 148.132 70.474C148.831 70.0261 149.36 69.5155 149.718 68.9422L151.089 70.0172C150.336 70.9667 149.503 71.6475 148.589 72.0596C147.693 72.4717 146.726 72.6777 145.687 72.6777C144.755 72.6777 143.886 72.5165 143.08 72.194C142.292 71.8536 141.611 71.3877 141.038 70.7965C140.464 70.2053 140.007 69.5066 139.667 68.7003C139.345 67.8941 139.183 67.0162 139.183 66.0667C139.183 65.1171 139.345 64.2392 139.667 63.433C139.99 62.6268 140.437 61.928 141.011 61.3368C141.584 60.7456 142.256 60.2887 143.026 59.9662C143.797 59.6258 144.63 59.4556 145.526 59.4556C146.511 59.4556 147.38 59.6258 148.132 59.9662C148.885 60.2887 149.512 60.7366 150.014 61.3099C150.515 61.8653 150.891 62.5193 151.142 63.2718C151.411 64.0242 151.545 64.8305 151.545 65.6904ZM161.695 72.3552H159.572L167.796 53.3283H169.677L177.847 72.3552H175.697L173.601 67.3566H163.765L161.695 72.3552ZM164.49 65.5829H172.875L168.683 55.4783L164.49 65.5829ZM189.677 72.3552C189.641 72.0148 189.614 71.6386 189.596 71.2265C189.578 70.8144 189.569 70.474 189.569 70.2053H189.515C189.157 70.9398 188.575 71.54 187.769 72.0058C186.962 72.4537 186.111 72.6777 185.216 72.6777C183.621 72.6777 182.421 72.2029 181.614 71.2534C180.826 70.3038 180.432 69.0497 180.432 67.491V59.7781H182.259V66.7385C182.259 67.4014 182.313 68.0016 182.421 68.5391C182.528 69.0766 182.707 69.5424 182.958 69.9365C183.227 70.3128 183.576 70.6084 184.006 70.8234C184.454 71.0384 185.01 71.1459 185.672 71.1459C186.156 71.1459 186.622 71.0473 187.07 70.8503C187.536 70.6532 187.948 70.3576 188.306 69.9634C188.664 69.5513 188.951 69.0407 189.166 68.4316C189.381 67.8045 189.489 67.07 189.489 66.2279V59.7781H191.316V69.5872C191.316 69.9276 191.325 70.3665 191.343 70.904C191.361 71.4415 191.388 71.9252 191.423 72.3552H189.677ZM206.501 70.2322C205.964 71.0384 205.265 71.6475 204.405 72.0596C203.545 72.4717 202.658 72.6777 201.745 72.6777C200.759 72.6777 199.863 72.5075 199.057 72.1671C198.269 71.8267 197.588 71.3609 197.015 70.7696C196.459 70.1784 196.02 69.4797 195.698 68.6735C195.393 67.8672 195.241 66.9983 195.241 66.0667C195.241 65.135 195.393 64.2661 195.698 63.4599C196.02 62.6536 196.459 61.9549 197.015 61.3637C197.588 60.7725 198.269 60.3066 199.057 59.9662C199.863 59.6258 200.759 59.4556 201.745 59.4556C202.658 59.4556 203.545 59.6706 204.405 60.1006C205.265 60.5127 205.964 61.1308 206.501 61.9549H206.555V52.0384H208.383V72.3552H206.555V70.2322H206.501ZM197.176 66.0667C197.176 66.7654 197.284 67.4283 197.499 68.0553C197.714 68.6645 198.018 69.202 198.412 69.6678C198.824 70.1157 199.326 70.474 199.917 70.7428C200.508 70.9936 201.18 71.119 201.933 71.119C202.631 71.119 203.276 70.9936 203.868 70.7428C204.459 70.474 204.97 70.1157 205.4 69.6678C205.829 69.2199 206.161 68.6914 206.394 68.0822C206.645 67.4552 206.77 66.7833 206.77 66.0667C206.77 65.35 206.645 64.6871 206.394 64.078C206.161 63.4509 205.829 62.9134 205.4 62.4655C204.97 61.9997 204.459 61.6414 203.868 61.3906C203.276 61.1218 202.631 60.9874 201.933 60.9874C201.18 60.9874 200.508 61.1218 199.917 61.3906C199.326 61.6593 198.824 62.0266 198.412 62.4924C198.018 62.9403 197.714 63.4778 197.499 64.1048C197.284 64.714 197.176 65.3679 197.176 66.0667ZM215.12 72.3552H213.293V59.7781H215.12V72.3552ZM215.497 54.9408C215.497 55.317 215.362 55.6305 215.094 55.8814C214.825 56.1143 214.529 56.2307 214.207 56.2307C213.884 56.2307 213.589 56.1143 213.32 55.8814C213.051 55.6305 212.917 55.317 212.917 54.9408C212.917 54.5645 213.051 54.26 213.32 54.027C213.589 53.7762 213.884 53.6508 214.207 53.6508C214.529 53.6508 214.825 53.7762 215.094 54.027C215.362 54.26 215.497 54.5645 215.497 54.9408ZM229.579 65.0992C229.525 63.9167 229.14 62.9403 228.423 62.1699C227.724 61.3816 226.721 60.9874 225.413 60.9874C224.804 60.9874 224.24 61.1039 223.72 61.3368C223.201 61.5518 222.744 61.8564 222.35 62.2505C221.955 62.6268 221.642 63.0657 221.409 63.5674C221.176 64.0511 221.042 64.5617 221.006 65.0992H229.579ZM231.433 65.6904C231.433 65.8158 231.433 65.9502 231.433 66.0935C231.433 66.2369 231.424 66.3892 231.406 66.5504H220.979C220.997 67.1775 221.122 67.7687 221.355 68.3241C221.588 68.8795 221.911 69.3632 222.323 69.7753C222.735 70.1874 223.218 70.5188 223.774 70.7696C224.329 71.0025 224.929 71.119 225.574 71.119C226.524 71.119 227.339 70.904 228.02 70.474C228.719 70.0261 229.247 69.5155 229.606 68.9422L230.976 70.0172C230.224 70.9667 229.391 71.6475 228.477 72.0596C227.581 72.4717 226.614 72.6777 225.574 72.6777C224.643 72.6777 223.774 72.5165 222.968 72.194C222.179 71.8536 221.499 71.3877 220.925 70.7965C220.352 70.2053 219.895 69.5066 219.555 68.7003C219.232 67.8941 219.071 67.0162 219.071 66.0667C219.071 65.1171 219.232 64.2392 219.555 63.433C219.877 62.6268 220.325 61.928 220.898 61.3368C221.472 60.7456 222.143 60.2887 222.914 59.9662C223.684 59.6258 224.517 59.4556 225.413 59.4556C226.399 59.4556 227.267 59.6258 228.02 59.9662C228.772 60.2887 229.4 60.7366 229.901 61.3099C230.403 61.8653 230.779 62.5193 231.03 63.2718C231.299 64.0242 231.433 64.8305 231.433 65.6904ZM237.003 59.7781C237.039 60.1185 237.066 60.4948 237.084 60.9068C237.102 61.3189 237.111 61.6593 237.111 61.928H237.164C237.523 61.1935 238.105 60.6023 238.911 60.1544C239.717 59.6885 240.568 59.4556 241.464 59.4556C243.059 59.4556 244.25 59.9304 245.038 60.88C245.845 61.8295 246.248 63.0836 246.248 64.6423V72.3552H244.42V65.3948C244.42 64.7319 244.367 64.1317 244.259 63.5942C244.152 63.0568 243.963 62.5999 243.695 62.2237C243.444 61.8295 243.095 61.5249 242.647 61.3099C242.217 61.0949 241.67 60.9874 241.007 60.9874C240.524 60.9874 240.049 61.086 239.583 61.2831C239.135 61.4801 238.732 61.7847 238.374 62.1968C238.015 62.5909 237.729 63.1015 237.514 63.7286C237.299 64.3378 237.191 65.0634 237.191 65.9054V72.3552H235.364V62.5461C235.364 62.2057 235.355 61.7668 235.337 61.2293C235.319 60.6918 235.292 60.2081 235.256 59.7781H237.003ZM260.036 62.6536C259.731 62.1699 259.283 61.7758 258.692 61.4712C258.119 61.1487 257.492 60.9874 256.811 60.9874C256.076 60.9874 255.413 61.1218 254.822 61.3906C254.231 61.6414 253.72 61.9997 253.29 62.4655C252.878 62.9134 252.556 63.4509 252.323 64.078C252.108 64.6871 252 65.35 252 66.0667C252 66.7833 252.108 67.4462 252.323 68.0553C252.556 68.6645 252.878 69.202 253.29 69.6678C253.702 70.1157 254.204 70.474 254.795 70.7428C255.386 70.9936 256.049 71.119 256.784 71.119C257.59 71.119 258.271 70.9667 258.826 70.6621C259.382 70.3576 259.839 69.9634 260.197 69.4797L261.568 70.5009C261.03 71.1638 260.367 71.6923 259.579 72.0865C258.808 72.4806 257.877 72.6777 256.784 72.6777C255.763 72.6777 254.84 72.5165 254.016 72.194C253.192 71.8536 252.484 71.3877 251.893 70.7965C251.32 70.2053 250.872 69.5066 250.549 68.7003C250.227 67.8941 250.065 67.0162 250.065 66.0667C250.065 65.1171 250.227 64.2392 250.549 63.433C250.872 62.6268 251.32 61.928 251.893 61.3368C252.484 60.7456 253.192 60.2887 254.016 59.9662C254.84 59.6258 255.763 59.4556 256.784 59.4556C257.626 59.4556 258.477 59.6437 259.337 60.02C260.215 60.3783 260.923 60.9158 261.46 61.6324L260.036 62.6536ZM274.01 65.0992C273.956 63.9167 273.571 62.9403 272.855 62.1699C272.156 61.3816 271.153 60.9874 269.845 60.9874C269.236 60.9874 268.671 61.1039 268.152 61.3368C267.632 61.5518 267.175 61.8564 266.781 62.2505C266.387 62.6268 266.073 63.0657 265.84 63.5674C265.608 64.0511 265.473 64.5617 265.437 65.0992H274.01ZM275.865 65.6904C275.865 65.8158 275.865 65.9502 275.865 66.0935C275.865 66.2369 275.856 66.3892 275.838 66.5504H265.411C265.428 67.1775 265.554 67.7687 265.787 68.3241C266.02 68.8795 266.342 69.3632 266.754 69.7753C267.166 70.1874 267.65 70.5188 268.205 70.7696C268.761 71.0025 269.361 71.119 270.006 71.119C270.956 71.119 271.771 70.904 272.452 70.474C273.15 70.0261 273.679 69.5155 274.037 68.9422L275.408 70.0172C274.655 70.9667 273.822 71.6475 272.908 72.0596C272.013 72.4717 271.045 72.6777 270.006 72.6777C269.074 72.6777 268.205 72.5165 267.399 72.194C266.611 71.8536 265.93 71.3877 265.357 70.7965C264.783 70.2053 264.327 69.5066 263.986 68.7003C263.664 67.8941 263.502 67.0162 263.502 66.0667C263.502 65.1171 263.664 64.2392 263.986 63.433C264.309 62.6268 264.757 61.928 265.33 61.3368C265.903 60.7456 266.575 60.2887 267.345 59.9662C268.116 59.6258 268.949 59.4556 269.845 59.4556C270.83 59.4556 271.699 59.6258 272.452 59.9662C273.204 60.2887 273.831 60.7366 274.333 61.3099C274.834 61.8653 275.211 62.5193 275.461 63.2718C275.73 64.0242 275.865 64.8305 275.865 65.6904Z" fill="#060633"/>
<g clip-path="url(#clip0_4163:153049)">
<path fill-rule="evenodd" clip-rule="evenodd" d="M83.015 2.47806H66.2881V0H83.015V2.47806Z" fill="#972D4C"/>
<path fill-rule="evenodd" clip-rule="evenodd" d="M83.0151 16.7269L83.0151 -1.08319e-07L85.4932 0L85.4932 16.7269L83.0151 16.7269Z" fill="#972D4C"/>
<path fill-rule="evenodd" clip-rule="evenodd" d="M83.015 2.47806H66.2881V0H83.015V2.47806Z" fill="#972D4C"/>
<path fill-rule="evenodd" clip-rule="evenodd" d="M83.0151 16.7269L83.0151 -1.08319e-07L85.4932 0L85.4932 16.7269L83.0151 16.7269Z" fill="#972D4C"/>
<path fill-rule="evenodd" clip-rule="evenodd" d="M83.015 89.2102H66.2881V91.6882H83.015V89.2102Z" fill="#972D4C"/>
<path fill-rule="evenodd" clip-rule="evenodd" d="M83.0151 74.9613L83.0151 91.6882L85.4932 91.6882L85.4932 74.9613L83.0151 74.9613Z" fill="#972D4C"/>
<path fill-rule="evenodd" clip-rule="evenodd" d="M2.47817 2.47806H19.2051V0H2.47817V2.47806Z" fill="#972D4C"/>
<path fill-rule="evenodd" clip-rule="evenodd" d="M2.47806 16.7269L2.47806 -1.08319e-07L0 0L7.31157e-07 16.7269L2.47806 16.7269Z" fill="#972D4C"/>
<path fill-rule="evenodd" clip-rule="evenodd" d="M2.47817 89.2102H19.2051V91.6882H2.47817V89.2102Z" fill="#972D4C"/>
<path fill-rule="evenodd" clip-rule="evenodd" d="M2.47806 74.9613L2.47806 91.6882L0 91.6882L7.31156e-07 74.9613L2.47806 74.9613Z" fill="#972D4C"/>
</g>
<g clip-path="url(#clip1_4163:153049)">
<path d="M44.8391 77.9866C44.6994 77.9871 44.5631 77.9426 44.4503 77.8596C44.3375 77.7767 44.2541 77.6597 44.2122 77.5257C44.1702 77.3917 44.1721 77.2477 44.2174 77.1148C44.2627 76.9819 44.3491 76.8671 44.464 76.7871C45.7065 75.9234 46.8719 74.9527 47.947 73.8859C52.0948 69.7539 54.6779 64.4165 55.4146 58.452C55.436 58.2787 55.525 58.121 55.662 58.0136C55.7991 57.9063 55.973 57.858 56.1454 57.8796C56.3178 57.9011 56.4747 57.9905 56.5815 58.1283C56.6883 58.266 56.7363 58.4408 56.7149 58.6141C55.9374 64.8658 53.228 70.4826 48.8683 74.8295C47.7404 75.9514 46.5163 76.9712 45.2103 77.8772C45.1007 77.9512 44.9711 77.9894 44.8391 77.9866ZM38.3434 77.971C38.1904 77.9718 38.0419 77.9187 37.9238 77.8209C37.8057 77.7231 37.7253 77.5869 37.6967 77.4358C37.6681 77.2848 37.693 77.1284 37.7671 76.9938C37.8412 76.8592 37.9598 76.755 38.1024 76.6992C40.9717 75.5671 43.5805 73.8571 45.7682 71.6744L45.8459 71.5962C46.3163 71.1234 46.7691 70.6194 47.1948 70.1153L47.2084 70.0978L47.2318 70.0704L47.2648 70.0294L47.4184 69.834C47.5034 69.7273 47.6195 69.6498 47.7503 69.6124C47.8812 69.575 48.0204 69.5794 48.1487 69.6252C48.2769 69.671 48.3878 69.7557 48.4659 69.8677C48.544 69.9797 48.5855 70.1134 48.5846 70.2501C48.584 70.4008 48.5326 70.5468 48.4388 70.6643C45.8294 73.8935 42.4352 76.3914 38.5844 77.9163C38.5083 77.95 38.4265 77.9685 38.3434 77.971ZM25.7543 77.9378C25.6443 77.9379 25.536 77.9104 25.4394 77.8577C24.5875 77.3876 23.7897 76.8249 23.0603 76.1795C21.1012 74.4471 19.7051 72.1632 19.0528 69.6237C18.4006 67.0842 18.5223 64.4064 19.4023 61.9373C19.4313 61.8558 19.4759 61.7809 19.5337 61.7168C19.5915 61.6527 19.6613 61.6007 19.7391 61.5636C19.8169 61.5266 19.9012 61.5054 19.9871 61.5011C20.0731 61.4968 20.159 61.5096 20.24 61.5388C20.3211 61.5679 20.3956 61.6128 20.4594 61.6708C20.5232 61.7289 20.575 61.799 20.6118 61.8772C20.6486 61.9554 20.6698 62.0401 20.674 62.1265C20.6783 62.2129 20.6655 62.2993 20.6366 62.3808C19.8439 64.6015 19.7339 67.0105 20.3207 69.2948C20.9075 71.5792 22.164 73.6335 23.9272 75.1909C24.5825 75.7718 25.2995 76.2782 26.0652 76.7011C26.1932 76.7712 26.2944 76.8821 26.3526 77.0164C26.4108 77.1507 26.4228 77.3007 26.3867 77.4426C26.3505 77.5846 26.2683 77.7103 26.1531 77.8C26.0378 77.8897 25.8961 77.9382 25.7504 77.9378H25.7543ZM31.6649 76.3475C29.2511 76.347 26.9211 75.4581 25.1148 73.8488C24.5445 73.3442 24.0327 72.7767 23.589 72.1569C23.5388 72.0866 23.5029 72.0071 23.4834 71.9228C23.4638 71.8386 23.4609 71.7513 23.4749 71.666C23.4889 71.5806 23.5195 71.4988 23.5649 71.4254C23.6103 71.3519 23.6697 71.2881 23.7396 71.2377C23.8096 71.1873 23.8887 71.1512 23.9725 71.1315C24.0563 71.1119 24.1432 71.109 24.2281 71.123C24.313 71.1371 24.3943 71.1678 24.4674 71.2135C24.5405 71.2591 24.604 71.3188 24.6541 71.3891C25.0399 71.9277 25.4846 72.4212 25.9797 72.8602C26.9617 73.7351 28.1303 74.372 29.3956 74.7219C30.6609 75.0718 31.9891 75.1253 33.2782 74.8784C37.18 74.1569 40.7755 72.272 43.5971 69.4687C44.0415 69.0258 44.462 68.5654 44.8585 68.0874C51.7449 59.7785 50.8431 46.8296 42.4795 38.3429C39.8541 35.671 36.6517 33.6428 33.1207 32.4155C32.9914 32.3711 32.8792 32.2871 32.7997 32.1754C32.7202 32.0636 32.6775 31.9297 32.6776 31.7923C32.6779 31.7199 32.6897 31.648 32.7125 31.5794C32.7403 31.4975 32.7839 31.422 32.8408 31.357C32.8977 31.2921 32.9667 31.2391 33.044 31.201C33.1212 31.1629 33.2052 31.1405 33.291 31.135C33.3769 31.1295 33.463 31.1411 33.5444 31.1691C37.2668 32.4645 40.6426 34.6036 43.4105 37.4208C48.293 42.3773 50.7615 48.7794 50.7615 55.0038C50.7615 60.7026 48.6953 66.251 44.5203 70.4084C44.0927 70.8343 43.6489 71.2393 43.1889 71.6236C40.5729 73.8107 37.4694 75.3295 34.1431 76.0506C33.9371 76.0955 33.7291 76.1385 33.5192 76.1775C32.9077 76.292 32.2869 76.3489 31.6649 76.3475ZM31.6649 73.2353C29.8518 73.2291 28.1149 72.5016 26.8339 71.2119C25.5529 69.9221 24.8321 68.175 24.8291 66.3526C24.8291 66.2158 24.8329 66.0791 24.8407 65.9423C24.9292 64.4115 25.5244 62.9544 26.5317 61.8028C27.539 60.6512 28.9005 59.8713 30.3996 59.5871C31.2669 59.4407 32.0691 59.0318 32.699 58.4149C33.5425 57.5748 33.9818 56.3791 33.9837 55.0253C33.9785 54.2991 33.8645 53.578 33.6455 52.886C33.6265 52.8226 33.6167 52.7568 33.6164 52.6906C33.6161 52.5329 33.6721 52.3804 33.7743 52.2607C33.8765 52.1411 34.018 52.0622 34.1731 52.0386C34.3282 52.0149 34.4866 52.048 34.6195 52.1318C34.7524 52.2156 34.8509 52.3446 34.8972 52.4953C35.1527 53.3175 35.2837 54.1736 35.286 55.035C35.286 56.7367 34.7029 58.2644 33.6125 59.3585C32.7974 60.1618 31.7579 60.6961 30.6328 60.8901C29.5506 61.0925 28.5542 61.6181 27.7737 62.3984C26.8027 63.3646 26.2213 64.6573 26.141 66.0283C26.141 66.1396 26.141 66.249 26.141 66.3604C26.142 67.1783 26.3221 67.9859 26.6685 68.7259C27.015 69.466 27.5192 70.1203 28.1455 70.6424C28.7718 71.1645 29.5048 71.5416 30.2924 71.747C31.0801 71.9524 31.903 71.9809 32.7029 71.8307C36.0686 71.2165 39.1626 69.5701 41.5601 67.1176C43.9576 64.6652 45.5409 61.5268 46.0928 58.1335C46.1181 57.9689 46.2047 57.82 46.3349 57.717C46.4652 57.6139 46.6295 57.5643 46.7946 57.5782C46.9598 57.5921 47.1136 57.6684 47.225 57.7917C47.3365 57.9151 47.3972 58.0763 47.395 58.2429C47.3946 58.2809 47.3913 58.3188 47.3853 58.3562C46.7875 62.0146 45.0788 65.3976 42.4935 68.0417C39.9081 70.6858 36.5726 72.4617 32.9439 73.1259C32.5217 73.2007 32.0936 73.236 31.6649 73.2314V73.2353ZM31.6649 70.1231C30.732 70.1212 29.8333 69.7701 29.1439 69.1384C28.4545 68.5066 28.0239 67.6394 27.9361 66.7059C27.8482 65.7724 28.1094 64.8394 28.6687 64.0889C29.228 63.3384 30.0453 62.8242 30.9613 62.6465C32.4357 62.3825 33.797 61.6786 34.8681 60.6264C38.2442 57.2661 37.7039 51.198 33.6669 47.1012C32.6129 46.0264 31.3683 45.1591 29.9972 44.5439C29.8385 44.4729 29.7143 44.3414 29.6519 44.1784C29.5896 44.0153 29.5943 43.8341 29.6649 43.6745C29.7355 43.5149 29.8663 43.39 30.0285 43.3274C30.1907 43.2647 30.371 43.2694 30.5298 43.3404C32.0488 44.0232 33.4282 44.9837 34.5979 46.1732C39.1442 50.7878 39.6787 57.6998 35.7913 61.5622C34.5345 62.8008 32.9352 63.6294 31.2024 63.9398C30.8873 64.0006 30.5871 64.1232 30.3192 64.3006C30.0512 64.478 29.8206 64.7067 29.6406 64.9736C29.4606 65.2406 29.3346 65.5405 29.2699 65.8564C29.2052 66.1723 29.203 66.4979 29.2635 66.8146C29.324 67.1313 29.446 67.433 29.6225 67.7023C29.7989 67.9717 30.0264 68.2034 30.292 68.3844C30.5576 68.5654 30.8561 68.692 31.1703 68.757C31.4846 68.822 31.8086 68.8242 32.1237 68.7634C34.8078 68.2699 37.2823 66.9766 39.2258 65.0514C45.0257 59.2764 44.5048 49.26 38.0596 42.725C34.8234 39.4409 30.6367 37.5517 26.2732 37.4052C26.0996 37.3991 25.9355 37.3241 25.8167 37.1967C25.698 37.0693 25.6343 36.8998 25.6396 36.7253C25.6399 36.6381 25.658 36.5519 25.6927 36.4719C25.7273 36.392 25.7779 36.32 25.8412 36.2604C25.9046 36.2007 25.9793 36.1547 26.0609 36.1252C26.1426 36.0956 26.2293 36.0831 26.316 36.0884C31.0177 36.2467 35.5173 38.2746 38.9906 41.799C45.9392 48.8497 46.4563 59.7004 40.1413 65.9872C38.0148 68.098 35.3059 69.5173 32.3666 70.0606C32.1351 70.1024 31.9001 70.122 31.6649 70.1192V70.1231ZM22.6385 69.2069C22.4911 69.207 22.348 69.157 22.2323 69.0652C22.1166 68.9734 22.0351 68.845 22.001 68.7009C21.8174 67.9331 21.7248 67.1462 21.725 66.3565C21.725 66.1611 21.725 65.9658 21.7444 65.7567C21.8867 63.2962 22.9293 60.9755 24.6716 59.2413C24.7951 59.1182 24.9621 59.0495 25.136 59.0502C25.3099 59.0509 25.4763 59.1211 25.5988 59.2452C25.7212 59.3693 25.7895 59.5372 25.7888 59.7119C25.7881 59.8867 25.7183 60.054 25.5949 60.1771C24.0981 61.6662 23.1952 63.6543 23.0564 65.7665V65.829C23.0564 66.0029 23.0428 66.1768 23.0428 66.3506C23.0423 67.0363 23.1225 67.7196 23.2819 68.3863C23.2935 68.437 23.2993 68.4887 23.2994 68.5407C23.2991 68.6883 23.2495 68.8314 23.1586 68.9473C23.0676 69.0631 22.9406 69.1449 22.7979 69.1795C22.7486 69.1938 22.6977 69.2017 22.6463 69.203L22.6385 69.2069ZM50.5554 66.843C50.4519 66.8436 50.3498 66.8188 50.258 66.7707C50.1813 66.7316 50.1131 66.6776 50.0572 66.6119C50.0012 66.5462 49.9588 66.4701 49.9323 66.3878C49.9057 66.3056 49.8956 66.2189 49.9025 66.1327C49.9093 66.0465 49.9331 65.9626 49.9723 65.8857C51.3551 63.1478 52.1924 60.1646 52.4369 57.1039C52.45 56.934 52.528 56.7758 52.6547 56.6626C52.7814 56.5494 52.9468 56.4899 53.1162 56.4967C53.2856 56.5036 53.4458 56.5762 53.5631 56.6992C53.6803 56.8223 53.7455 56.9863 53.745 57.1567C53.746 57.1756 53.746 57.1945 53.745 57.2134C53.4878 60.4449 52.6044 63.5947 51.1443 66.4854C51.0887 66.592 51.0052 66.6813 50.9028 66.7436C50.8003 66.8059 50.6829 66.8389 50.5632 66.839L50.5554 66.843ZM47.0004 55.9357H46.9908C46.8182 55.9331 46.6536 55.8624 46.5325 55.7388C46.4113 55.6153 46.3435 55.4488 46.3435 55.2753C46.3435 55.1855 46.3435 55.0956 46.3435 55.0038C46.3255 51.3249 45.3079 47.7209 43.4008 44.581C43.3108 44.4315 43.2837 44.2522 43.3252 44.0826C43.3668 43.9129 43.4736 43.7668 43.6224 43.6764C43.7711 43.586 43.9494 43.5587 44.1182 43.6005C44.287 43.6422 44.4323 43.7497 44.5223 43.8992C46.5543 47.245 47.6371 51.0858 47.6535 55.0057C47.6535 55.1014 47.6535 55.2011 47.6535 55.2949C47.6481 55.464 47.578 55.6246 47.4578 55.7432C47.3376 55.8618 47.1766 55.9293 47.0082 55.9318L47.0004 55.9357ZM51.9704 47.7303C51.8307 47.73 51.6946 47.685 51.5821 47.6018C51.4695 47.5185 51.3863 47.4013 51.3446 47.2673C50.0332 43.0775 47.7425 39.2643 44.6641 36.147C39.7544 31.1652 33.3307 28.2992 26.5725 28.0784C26.4865 28.0756 26.4019 28.0558 26.3234 28.0202C26.245 27.9845 26.1744 27.9336 26.1155 27.8705C26.0567 27.8073 26.0108 27.7332 25.9805 27.6522C25.9502 27.5712 25.936 27.485 25.9389 27.3985C25.9401 27.3116 25.9587 27.2257 25.9937 27.1462C26.0286 27.0666 26.0792 26.995 26.1423 26.9355C26.2055 26.8761 26.2799 26.83 26.3612 26.8001C26.4424 26.7703 26.5289 26.7572 26.6153 26.7616C33.7097 26.9941 40.4483 29.9989 45.5952 35.219C48.819 38.4877 51.2182 42.4841 52.5924 46.8746C52.6179 46.9572 52.6271 47.0441 52.6192 47.1302C52.6114 47.2164 52.5867 47.3001 52.5466 47.3767C52.5066 47.4533 52.4519 47.5211 52.3857 47.5764C52.3195 47.6318 52.2431 47.6734 52.1609 47.699C52.102 47.7193 52.0404 47.7305 51.9782 47.7322L51.9704 47.7303ZM42.1238 42.2737C42.0271 42.2739 41.9316 42.2524 41.8442 42.2108C41.7568 42.1693 41.6796 42.1087 41.6184 42.0334C41.1947 41.5157 40.7399 41.0077 40.2579 40.5271C36.5183 36.7312 31.6552 34.5177 26.5628 34.2969C26.3943 34.2889 26.2354 34.2161 26.1189 34.0935C26.0024 33.9709 25.9373 33.808 25.9369 33.6385V33.6092C25.946 33.4351 26.0228 33.2715 26.1508 33.1538C26.2788 33.0361 26.4478 32.9737 26.6211 32.9801C32.042 33.2165 37.216 35.5668 41.1986 39.5991C41.702 40.109 42.186 40.6483 42.635 41.1972C42.7444 41.3325 42.7963 41.5057 42.7792 41.6792C42.7621 41.8527 42.6774 42.0123 42.5436 42.1233C42.4276 42.2199 42.2822 42.2737 42.1316 42.2757L42.1238 42.2737ZM29.7874 31.5286C29.7489 31.5282 29.7106 31.5249 29.6727 31.5188C28.824 31.3675 27.9674 31.2658 27.107 31.214C26.9405 31.2036 26.7842 31.1296 26.67 31.0073C26.5559 30.8849 26.4925 30.7234 26.4928 30.5556V30.5166C26.5048 30.3424 26.5846 30.18 26.7148 30.0645C26.845 29.9489 27.0152 29.8896 27.1887 29.8992C28.1011 29.9536 29.0097 30.0613 29.9098 30.2216C30.061 30.2486 30.198 30.3282 30.2967 30.4464C30.3955 30.5646 30.4498 30.7139 30.4501 30.8682C30.4498 30.9075 30.4466 30.9467 30.4404 30.9855C30.4139 31.1381 30.3346 31.2765 30.2166 31.3762C30.0985 31.4759 29.9493 31.5305 29.7951 31.5305L29.7874 31.5286Z" fill="#972D4C"/>
<path d="M20.6575 77.9241C20.571 77.9246 20.4852 77.9076 20.4054 77.874C20.3256 77.8404 20.2533 77.791 20.1929 77.7287C18.6057 76.112 17.3741 74.1782 16.5778 72.0526C15.7816 69.9269 15.4386 67.6568 15.5709 65.3894C15.576 65.3031 15.598 65.2186 15.6356 65.1408C15.6732 65.063 15.7256 64.9934 15.7899 64.936C15.8543 64.8786 15.9293 64.8345 16.0106 64.8062C16.0919 64.7779 16.1779 64.7659 16.2638 64.7711C16.3497 64.7762 16.4338 64.7983 16.5112 64.8361C16.5886 64.8738 16.6578 64.9266 16.7149 64.9913C16.7721 65.0559 16.816 65.1313 16.8441 65.213C16.8723 65.2947 16.8841 65.3812 16.879 65.4676C16.7454 67.551 17.0549 69.6391 17.7868 71.5929C18.5188 73.5467 19.6564 75.3214 21.124 76.7988C21.2149 76.8912 21.2766 77.0086 21.3013 77.1362C21.326 77.2638 21.3125 77.3958 21.2626 77.5158C21.2127 77.6357 21.1286 77.7381 21.0209 77.8101C20.9133 77.882 20.7868 77.9203 20.6575 77.9202V77.9241Z" fill="#972D4C"/>
<path d="M16.6051 77.9104C16.5011 77.9105 16.3987 77.8857 16.3061 77.8381C16.2135 77.7906 16.1335 77.7216 16.0726 77.6369C14.4097 75.3373 13.2806 72.6924 12.7683 69.8965C12.7366 69.7248 12.7741 69.5474 12.8725 69.4034C12.9709 69.2594 13.1222 69.1606 13.2931 69.1287C13.464 69.0969 13.6405 69.1346 13.7837 69.2335C13.927 69.3324 14.0252 69.4845 14.0569 69.6562C14.532 72.26 15.5821 74.7235 17.1299 76.8652C17.2008 76.9634 17.2433 77.0793 17.2528 77.2002C17.2623 77.3211 17.2384 77.4423 17.1838 77.5504C17.1291 77.6586 17.0457 77.7494 16.9429 77.8129C16.8401 77.8764 16.7219 77.9102 16.6012 77.9104H16.6051Z" fill="#972D4C"/>
<path d="M51.9779 47.7322C51.8382 47.732 51.7021 47.687 51.5896 47.6037C51.477 47.5205 51.3938 47.4033 51.3521 47.2692C50.0407 43.0794 47.75 39.2663 44.6717 36.149C39.762 31.1672 33.3382 28.3011 26.58 28.0804C26.494 28.0776 26.4093 28.0578 26.3309 28.0221C26.2525 27.9864 26.1819 27.9356 26.123 27.8724C26.0642 27.8093 26.0183 27.7351 25.988 27.6541C25.9577 27.5732 25.9436 27.487 25.9464 27.4005C25.9476 27.3135 25.9662 27.2277 26.0012 27.1481C26.0361 27.0686 26.0867 26.9969 26.1498 26.9375C26.213 26.878 26.2874 26.832 26.3687 26.8021C26.45 26.7722 26.5364 26.7591 26.6228 26.7636C33.7172 26.9961 40.4559 30.0008 45.6027 35.221C48.8265 38.4897 51.2257 42.486 52.5999 46.8765C52.6255 46.9592 52.6346 47.046 52.6267 47.1322C52.6189 47.2183 52.5942 47.3021 52.5541 47.3787C52.5141 47.4552 52.4594 47.5231 52.3932 47.5784C52.327 47.6337 52.2506 47.6754 52.1684 47.701C52.1069 47.7214 52.0427 47.7319 51.9779 47.7322ZM55.0878 42.3636C54.9724 42.3631 54.8591 42.3321 54.7593 42.2737C51.0626 40.0934 47.9504 37.0403 45.6921 33.3787C45.6267 33.2747 45.5923 33.154 45.593 33.0309C45.5926 32.8878 45.6387 32.7484 45.7243 32.634C45.8099 32.5195 45.9302 32.4362 46.0671 32.3967C46.204 32.3572 46.35 32.3636 46.4829 32.4149C46.6159 32.4662 46.7285 32.5597 46.8039 32.6812C48.9488 36.1611 51.9057 39.0628 55.4182 41.1347C55.5434 41.2073 55.6413 41.3194 55.6965 41.4536C55.7517 41.5879 55.7613 41.7367 55.7236 41.877C55.6858 42.0172 55.603 42.141 55.4881 42.229C55.3731 42.317 55.2323 42.3643 55.0878 42.3636ZM56.3706 39.5171C56.2521 39.5177 56.1356 39.4852 56.0343 39.4233C49.8146 35.6743 45.5735 28.8833 44.6989 21.2543C44.697 21.2289 44.697 21.2034 44.6989 21.1781C44.6977 21.0093 44.7611 20.8464 44.8759 20.7232C44.9907 20.6 45.1482 20.5259 45.3159 20.5161C45.4836 20.5063 45.6486 20.5616 45.7769 20.6707C45.9051 20.7797 45.9868 20.9341 46.005 21.1019C46.833 28.3304 50.837 34.7502 56.7108 38.2941C56.808 38.3524 56.8885 38.4351 56.9444 38.534C57.0003 38.633 57.0296 38.7449 57.0295 38.8587C57.0301 38.9779 56.9978 39.0949 56.9362 39.1967C56.8783 39.2945 56.796 39.3754 56.6975 39.4316C56.5991 39.4878 56.4877 39.5172 56.3745 39.5171H56.3706ZM57.0412 36.2584C56.9093 36.2582 56.7806 36.218 56.6719 36.1431C51.768 32.775 48.5279 27.252 47.7835 20.9886C47.6202 19.6073 46.7262 18.7849 45.3909 18.7849C45.038 18.778 44.6877 18.8474 44.3638 18.9883C44.0399 19.1292 43.7499 19.3383 43.5132 19.6015C43.1224 20.0414 42.9083 20.6117 42.9127 21.2015C42.9127 21.3034 42.9185 21.4051 42.9301 21.5063C43.2898 24.6343 44.1889 27.6754 45.5871 30.4931C45.6454 30.6458 45.6451 30.8149 45.5862 30.9673C45.5273 31.1198 45.4141 31.2448 45.2686 31.3179C45.123 31.3911 44.9556 31.4072 44.7989 31.363C44.6422 31.3189 44.5075 31.2177 44.4209 31.0792C42.9546 28.1237 42.012 24.9338 41.6357 21.6528C41.618 21.505 41.6088 21.3563 41.6084 21.2074C41.6049 20.2911 41.9362 19.4054 42.5395 18.7184C42.8983 18.3152 43.3391 17.9941 43.832 17.7767C44.3249 17.5593 44.8584 17.4507 45.3966 17.4583C47.3986 17.4583 48.8486 18.7809 49.0896 20.8264C49.7874 26.7109 52.8234 31.8939 57.4163 35.0471C57.5041 35.1082 57.5759 35.1896 57.6256 35.2845C57.6754 35.3794 57.7016 35.4849 57.702 35.5922C57.7023 35.7248 57.6623 35.8543 57.5874 35.9634C57.5279 36.0534 57.4473 36.1274 57.3528 36.1788C57.2582 36.2303 57.1526 36.2576 57.0451 36.2584H57.0412ZM56.3278 31.5852C56.2404 31.5863 56.1536 31.5696 56.0728 31.536C55.9919 31.5024 55.9187 31.4527 55.8575 31.3899C53.1188 28.5473 51.3443 24.724 50.8584 20.6272C50.5124 17.7123 48.2636 15.6785 45.3909 15.6785C44.595 15.6765 43.8075 15.843 43.0798 16.1669C42.9207 16.2373 42.7404 16.2415 42.5783 16.1785C42.4162 16.1155 42.2855 15.9905 42.2149 15.8309C42.1777 15.7473 42.1585 15.6568 42.1585 15.5652C42.1583 15.4376 42.195 15.3127 42.264 15.2055C42.3329 15.0984 42.4313 15.0136 42.5472 14.9615C43.4421 14.5635 44.4103 14.3592 45.3889 14.3618C48.9478 14.3618 51.7311 16.8722 52.1567 20.4709C52.5822 24.2234 54.2107 27.735 56.7963 30.4756C56.8855 30.5685 56.9455 30.6857 56.969 30.8127C56.9924 30.9397 56.9781 31.0707 56.928 31.1896C56.8779 31.3085 56.794 31.41 56.687 31.4814C56.5799 31.5527 56.4543 31.5909 56.3259 31.5911L56.3278 31.5852ZM42.038 29.8504C41.9127 29.8506 41.7899 29.8147 41.6843 29.7468C37.1801 26.8068 31.9648 25.1542 26.5975 24.9662C26.4272 24.9612 26.2655 24.8895 26.1468 24.7666C26.0282 24.6437 25.9618 24.4791 25.9619 24.3079C25.9619 24.3079 25.9619 24.2961 25.9619 24.2883C25.9631 24.2014 25.9817 24.1157 26.0165 24.0362C26.0514 23.9566 26.1017 23.885 26.1646 23.8254C26.2275 23.7658 26.3017 23.7195 26.3827 23.6893C26.4638 23.6591 26.55 23.6455 26.6364 23.6495C32.2402 23.8429 37.6863 25.5643 42.3917 28.6293C42.5114 28.7062 42.6029 28.8199 42.6526 28.9536C42.7024 29.0872 42.7076 29.2334 42.6674 29.3703C42.6273 29.5072 42.5441 29.6272 42.4302 29.7124C42.3163 29.7976 42.178 29.8432 42.0361 29.8426L42.038 29.8504ZM55.9799 25.695C55.8578 25.6936 55.7385 25.6579 55.6354 25.592C55.5324 25.526 55.4498 25.4325 55.3968 25.3218C54.6403 23.7251 54.1498 22.0144 53.9449 20.2579C53.8875 19.7885 53.7946 19.3241 53.667 18.8689C53.602 18.725 53.5902 18.5626 53.6337 18.4108C53.6772 18.259 53.773 18.1277 53.9041 18.0405C54.0463 17.9456 54.2201 17.9111 54.3875 17.9444C54.555 17.9777 54.7026 18.0761 54.7982 18.2183C54.844 18.286 54.8806 18.3596 54.907 18.4371C55.0648 18.9811 55.1779 19.5371 55.2452 20.0997C55.2452 20.1719 55.2627 20.2442 55.2705 20.3146C55.4592 21.7368 55.852 23.124 56.4367 24.4329L56.4892 24.5501V24.5638L56.5766 24.7591C56.6196 24.8473 56.6415 24.9443 56.6408 25.0424C56.6401 25.1654 56.6049 25.2856 56.5392 25.3893C56.4735 25.493 56.3801 25.5759 56.2696 25.6285C56.179 25.6711 56.0799 25.6919 55.9799 25.6891V25.695ZM40.9787 25.6422C40.8738 25.6422 40.7705 25.6167 40.6775 25.568C38.4281 24.3929 36.0524 23.4805 33.5967 22.8485C33.4559 22.8117 33.3313 22.729 33.2423 22.6134C33.1533 22.4978 33.105 22.3558 33.1049 22.2096C33.1046 22.1543 33.1112 22.0992 33.1244 22.0455C33.1457 21.9617 33.1832 21.883 33.2348 21.8138C33.2864 21.7446 33.351 21.6863 33.425 21.6422C33.499 21.5982 33.5809 21.5692 33.666 21.5569C33.7512 21.5446 33.8379 21.5493 33.9213 21.5708C36.4739 22.2293 38.9434 23.1785 41.2819 24.3997C41.3882 24.4557 41.4772 24.54 41.5393 24.6433C41.6013 24.7467 41.634 24.8651 41.6337 24.9858C41.634 25.0912 41.6086 25.1952 41.5598 25.2886C41.5038 25.3944 41.42 25.4827 41.3176 25.544C41.2151 25.6053 41.0979 25.6372 40.9787 25.6363V25.6422ZM31.2468 22.321C31.2093 22.3248 31.1715 22.3248 31.134 22.321C29.8994 22.1069 28.6533 21.966 27.4022 21.899C27.2346 21.8905 27.0766 21.8176 26.9609 21.6955C26.8452 21.5734 26.7805 21.4112 26.7802 21.2426C26.7802 21.2308 26.7802 21.2191 26.7802 21.2074C26.7918 21.034 26.87 20.8719 26.9985 20.7555C27.1269 20.6391 27.2955 20.5777 27.4683 20.5842C28.7716 20.6532 30.0696 20.8 31.3556 21.0237C31.5075 21.0504 31.6451 21.1301 31.7443 21.2487C31.8435 21.3674 31.8979 21.5174 31.8979 21.6724C31.9007 21.7101 31.9007 21.748 31.8979 21.7857C31.8687 21.9372 31.7876 22.0736 31.6686 22.1711C31.5496 22.2685 31.4003 22.3209 31.2468 22.319V22.321ZM39.8261 21.6567C39.738 21.6564 39.6507 21.6384 39.5695 21.604C36.2833 20.1912 32.8039 19.2849 29.2487 18.9157C29.0884 18.8979 28.9402 18.8213 28.8326 18.7006C28.725 18.5798 28.6656 18.4234 28.6656 18.2613C28.6656 18.2378 28.6656 18.2163 28.6656 18.1929C28.6738 18.1067 28.699 18.0229 28.7398 17.9466C28.7805 17.8703 28.836 17.8029 28.903 17.7483C28.9699 17.6938 29.047 17.6532 29.1297 17.6289C29.2124 17.6046 29.2991 17.5971 29.3847 17.6068C33.0667 17.9926 36.6703 18.9317 40.0749 20.3927C40.213 20.453 40.3263 20.5592 40.3959 20.6934C40.4654 20.8277 40.487 20.9819 40.4569 21.1302C40.4268 21.2785 40.347 21.4119 40.2307 21.5081C40.1145 21.6043 39.9689 21.6575 39.8183 21.6587L39.8261 21.6567ZM40.3917 18.5309C40.3079 18.5306 40.2248 18.5147 40.1468 18.484C37.6773 17.4793 35.1119 16.7317 32.4907 16.2529C32.3397 16.2251 32.2032 16.1449 32.1048 16.0264C32.0065 15.908 31.9525 15.7586 31.9523 15.6043C31.9527 15.5644 31.956 15.5246 31.962 15.4851C31.9946 15.3137 32.0931 15.1621 32.236 15.063C32.3789 14.9639 32.5549 14.9254 32.7259 14.9557C35.4348 15.4518 38.0861 16.2249 40.6386 17.2629C40.7791 17.3206 40.8953 17.4255 40.9674 17.5598C41.0395 17.694 41.063 17.8492 41.0338 17.9989C41.0047 18.1486 40.9247 18.2835 40.8076 18.3805C40.6905 18.4776 40.5435 18.5307 40.3917 18.5309ZM41.0273 15.4382C40.9494 15.4374 40.8723 15.4222 40.7999 15.3933C39.8145 15.0026 38.7843 14.6529 37.6453 14.3071C37.4788 14.2552 37.3396 14.1391 37.2583 13.9841C37.1771 13.8291 37.1603 13.648 37.2119 13.4807C37.2634 13.3133 37.379 13.1734 37.5332 13.0917C37.6874 13.01 37.8676 12.9932 38.0341 13.045C39.2003 13.4006 40.2693 13.7678 41.2858 14.1664C41.4282 14.2222 41.5467 14.3263 41.6208 14.4606C41.6949 14.595 41.72 14.7511 41.6916 14.9021C41.6632 15.053 41.5832 15.1893 41.4655 15.2872C41.3477 15.3851 41.1996 15.4385 41.0467 15.4382H41.0273Z" fill="#972D4C"/>
<path d="M16.6051 77.9104C16.5011 77.9105 16.3987 77.8857 16.3061 77.8381C16.2135 77.7906 16.1335 77.7216 16.0726 77.6369C14.4097 75.3373 13.2806 72.6924 12.7683 69.8965C12.7366 69.7248 12.7741 69.5474 12.8725 69.4034C12.9709 69.2594 13.1222 69.1606 13.2931 69.1287C13.464 69.0969 13.6405 69.1346 13.7837 69.2335C13.927 69.3324 14.0252 69.4845 14.0569 69.6562C14.532 72.26 15.5821 74.7235 17.1299 76.8652C17.2008 76.9634 17.2433 77.0793 17.2528 77.2002C17.2623 77.3211 17.2384 77.4423 17.1838 77.5504C17.1291 77.6586 17.0457 77.7494 16.9429 77.8129C16.8401 77.8764 16.7219 77.9102 16.6012 77.9104H16.6051Z" fill="#972D4C"/>
<path d="M12.9042 77.9104C12.7893 77.9104 12.6765 77.88 12.5769 77.8225C12.4773 77.7649 12.3945 77.682 12.3367 77.5822C11.9187 76.8535 11.5411 76.1021 11.2055 75.3316C11.171 75.2523 11.1524 75.167 11.1508 75.0805C11.1491 74.994 11.1644 74.908 11.1958 74.8275C11.2272 74.7469 11.2741 74.6734 11.3338 74.6111C11.3935 74.5487 11.4648 74.4988 11.5437 74.4642C11.6225 74.4295 11.7074 74.4109 11.7935 74.4092C11.8795 74.4075 11.9651 74.4229 12.0452 74.4545C12.1253 74.4861 12.1985 74.5332 12.2605 74.5932C12.3226 74.6532 12.3722 74.7248 12.4066 74.8041C12.721 75.5293 13.0766 76.2358 13.4718 76.9199C13.5586 77.0713 13.5822 77.2511 13.5373 77.4199C13.4925 77.5887 13.383 77.7328 13.2327 77.8206C13.1331 77.8794 13.0197 77.9105 12.9042 77.9104Z" fill="#972D4C"/>
<path d="M44.839 77.9867C44.6992 77.9871 44.563 77.9426 44.4502 77.8597C44.3374 77.7767 44.2539 77.6597 44.212 77.5257C44.1701 77.3917 44.1719 77.2477 44.2173 77.1148C44.2626 76.982 44.349 76.8671 44.4639 76.7871C45.7064 75.9234 46.8718 74.9527 47.9469 73.8859C52.0947 69.7539 54.6778 64.4165 55.4145 58.452C55.4358 58.2787 55.5249 58.121 55.6619 58.0137C55.799 57.9063 55.9728 57.8581 56.1453 57.8796C56.3177 57.9011 56.4746 57.9906 56.5814 58.1283C56.6882 58.2661 56.7361 58.4408 56.7148 58.6142C55.9373 64.8659 53.2278 70.4827 48.8682 74.8295C47.7402 75.9514 46.5162 76.9712 45.2102 77.8773C45.1006 77.9513 44.971 77.9895 44.839 77.9867Z" fill="#972D4C"/>
<path d="M49.7736 78.0003C49.6418 77.9997 49.5132 77.9592 49.4046 77.8841C49.296 77.8091 49.2124 77.7029 49.1646 77.5794C49.1168 77.456 49.107 77.3209 49.1366 77.1918C49.1662 77.0627 49.2337 76.9455 49.3304 76.8555C49.5987 76.6074 49.865 76.3554 50.1235 76.0955C54.601 71.6329 57.504 65.8211 58.3899 59.546C58.4026 59.4605 58.4321 59.3783 58.4764 59.3041C58.5208 59.23 58.5792 59.1654 58.6485 59.1139C58.7177 59.0625 58.7963 59.0253 58.8798 59.0044C58.9634 58.9835 59.0501 58.9793 59.1353 58.9922C59.2204 59.005 59.3022 59.0346 59.376 59.0792C59.4497 59.1237 59.514 59.1825 59.5652 59.2521C59.6164 59.3217 59.6534 59.4007 59.6741 59.4846C59.6949 59.5686 59.6991 59.6558 59.6863 59.7414C58.7604 66.2995 55.7264 72.3735 51.0467 77.0372C50.7746 77.3094 50.4979 77.5744 50.2168 77.8323C50.0957 77.9429 49.9372 78.003 49.7736 78.0003Z" fill="#972D4C"/>
<path d="M69.1484 78.0511C69.0347 78.0506 68.923 78.0203 68.8244 77.9634C68.7258 77.9065 68.6436 77.8248 68.5858 77.7263C68.528 77.6279 68.4966 77.516 68.4947 77.4018C68.4928 77.2875 68.5205 77.1746 68.575 77.0743C69.7525 74.9224 70.7529 72.6773 71.5663 70.3615C71.5949 70.2799 71.6392 70.2048 71.6967 70.1404C71.7542 70.0761 71.8237 70.0237 71.9013 69.9863C71.9789 69.9489 72.0631 69.9273 72.149 69.9226C72.2349 69.9179 72.3209 69.9303 72.4021 69.9591C72.4833 69.9878 72.558 70.0323 72.6221 70.0901C72.6861 70.1479 72.7382 70.2177 72.7754 70.2957C72.8126 70.3738 72.8341 70.4584 72.8387 70.5447C72.8434 70.6311 72.8311 70.7176 72.8025 70.7991C71.9646 73.1846 70.935 75.4975 69.7237 77.7151C69.6663 77.8175 69.5827 77.9027 69.4815 77.9617C69.3804 78.0208 69.2654 78.0517 69.1484 78.0511Z" fill="#972D4C"/>
<path d="M72.6429 78.0589C72.5402 78.0596 72.4389 78.0355 72.3474 77.9886C72.2706 77.9496 72.2021 77.8958 72.1459 77.8302C72.0897 77.7647 72.047 77.6886 72.0201 77.6064C71.9932 77.5242 71.9827 77.4375 71.9892 77.3512C71.9956 77.2649 72.019 77.1808 72.0578 77.1036C72.4466 76.3221 72.7848 75.6208 73.088 74.935C73.1611 74.7798 73.2917 74.6595 73.4518 74.5997C73.612 74.5399 73.7891 74.5454 73.9453 74.615C74.1015 74.6846 74.2245 74.8128 74.288 74.9722C74.3515 75.1316 74.3505 75.3097 74.2853 75.4684C73.9723 76.1756 73.6264 76.9043 73.2279 77.6975C73.1732 77.8062 73.0896 77.8976 72.9863 77.9614C72.883 78.0252 72.7641 78.059 72.6429 78.0589Z" fill="#972D4C"/>
<path d="M65.5955 78.0413C65.4792 78.0413 65.3651 78.0102 65.2648 77.9513C65.1644 77.8923 65.0815 77.8075 65.0246 77.7057C64.9676 77.6039 64.9386 77.4887 64.9405 77.3719C64.9425 77.2551 64.9753 77.1409 65.0357 77.041C66.9548 73.8571 68.4413 70.4292 69.4556 66.8488C69.5074 66.6862 69.6202 66.5502 69.7699 66.4696C69.9197 66.3889 70.0948 66.3699 70.2582 66.4165C70.4217 66.4632 70.5607 66.5718 70.6459 66.7196C70.7311 66.8673 70.7559 67.0425 70.715 67.2083C69.6703 70.9032 68.1367 74.4403 66.1552 77.7248C66.0967 77.8213 66.0144 77.9011 65.9164 77.9565C65.8184 78.0119 65.7079 78.0411 65.5955 78.0413Z" fill="#972D4C"/>
<path d="M69.1484 78.0511C69.0347 78.0506 68.923 78.0203 68.8244 77.9634C68.7258 77.9065 68.6436 77.8248 68.5858 77.7263C68.528 77.6279 68.4966 77.516 68.4947 77.4018C68.4928 77.2875 68.5205 77.1746 68.575 77.0743C69.7525 74.9224 70.7529 72.6773 71.5663 70.3615C71.5949 70.2799 71.6392 70.2048 71.6967 70.1404C71.7542 70.0761 71.8237 70.0237 71.9013 69.9863C71.9789 69.9489 72.0631 69.9273 72.149 69.9226C72.2349 69.9179 72.3209 69.9303 72.4021 69.9591C72.4833 69.9878 72.558 70.0323 72.6221 70.0901C72.6861 70.1479 72.7382 70.2177 72.7754 70.2957C72.8126 70.3738 72.8341 70.4584 72.8387 70.5447C72.8434 70.6311 72.8311 70.7176 72.8025 70.7991C71.9646 73.1846 70.935 75.4975 69.7237 77.7151C69.6663 77.8175 69.5827 77.9027 69.4815 77.9617C69.3804 78.0208 69.2654 78.0517 69.1484 78.0511Z" fill="#972D4C"/>
<path d="M49.7736 78.0003C49.6418 77.9997 49.5132 77.9592 49.4046 77.8841C49.296 77.8091 49.2124 77.7029 49.1646 77.5794C49.1168 77.456 49.107 77.3209 49.1366 77.1918C49.1662 77.0627 49.2337 76.9455 49.3304 76.8555C49.5987 76.6074 49.865 76.3554 50.1235 76.0955C54.601 71.6329 57.504 65.8211 58.3899 59.546C58.4026 59.4605 58.4321 59.3783 58.4764 59.3041C58.5208 59.23 58.5792 59.1654 58.6485 59.1139C58.7177 59.0625 58.7963 59.0253 58.8798 59.0044C58.9634 58.9835 59.0501 58.9793 59.1353 58.9922C59.2204 59.005 59.3022 59.0346 59.376 59.0792C59.4497 59.1237 59.514 59.1825 59.5652 59.2521C59.6164 59.3217 59.6534 59.4007 59.6741 59.4846C59.6949 59.5686 59.6991 59.6558 59.6863 59.7414C58.7604 66.2995 55.7264 72.3735 51.0467 77.0372C50.7746 77.3094 50.4979 77.5744 50.2168 77.8323C50.0957 77.9429 49.9372 78.003 49.7736 78.0003Z" fill="#972D4C"/>
<path d="M54.1042 78.012C53.9779 78.0116 53.8544 77.9746 53.7484 77.9054C53.6425 77.8362 53.5586 77.7377 53.507 77.6219C53.4553 77.506 53.4379 77.3776 53.457 77.252C53.4761 77.1265 53.5307 77.0092 53.6144 76.9141C57.6498 72.3658 60.3234 66.7634 61.3269 60.7534C61.3606 60.5855 61.4581 60.4374 61.5987 60.3405C61.7393 60.2437 61.9119 60.2057 62.0798 60.2347C62.2478 60.2637 62.3979 60.3573 62.4983 60.4958C62.5987 60.6342 62.6414 60.8065 62.6175 60.9761C61.5755 67.2288 58.7961 73.058 54.5999 77.7913C54.5378 77.8616 54.4615 77.9177 54.376 77.9558C54.2904 77.9939 54.1978 78.013 54.1042 78.012Z" fill="#972D4C"/>
<path d="M54.1042 78.012C53.9779 78.0116 53.8544 77.9746 53.7484 77.9054C53.6425 77.8362 53.5586 77.7377 53.507 77.6219C53.4553 77.506 53.4379 77.3776 53.457 77.252C53.4761 77.1265 53.5307 77.0092 53.6144 76.9141C57.6498 72.3658 60.3234 66.7634 61.3269 60.7534C61.3606 60.5855 61.4581 60.4374 61.5987 60.3405C61.7393 60.2437 61.9119 60.2057 62.0798 60.2347C62.2478 60.2637 62.3979 60.3573 62.4983 60.4958C62.5987 60.6342 62.6414 60.8065 62.6175 60.9761C61.5755 67.2288 58.7961 73.058 54.5999 77.7913C54.5378 77.8616 54.4615 77.9177 54.376 77.9558C54.2904 77.9939 54.1978 78.013 54.1042 78.012Z" fill="#972D4C"/>
<path d="M63.7525 67.2513C63.6663 67.2518 63.5809 67.2351 63.5012 67.2022C63.4214 67.1693 63.3491 67.1208 63.2881 67.0596C63.2272 66.9984 63.179 66.9256 63.1463 66.8455C63.1135 66.7654 63.0969 66.6795 63.0974 66.5929C63.0981 66.5266 63.1085 66.4607 63.1285 66.3975C63.5652 65.0406 63.9215 63.6589 64.1956 62.2597C64.2263 62.0985 64.3158 61.9546 64.4465 61.8562C64.5773 61.7579 64.7398 61.7121 64.9024 61.728C65.0649 61.7439 65.2157 61.8203 65.3251 61.9421C65.4346 62.064 65.4948 62.2225 65.494 62.3867C65.4939 62.4299 65.49 62.4731 65.4823 62.5156C65.1967 63.9656 64.8268 65.3975 64.3744 66.8039C64.3307 66.9347 64.2471 67.0484 64.1354 67.1287C64.0238 67.209 63.8898 67.2519 63.7525 67.2513Z" fill="#972D4C"/>
<path d="M61.9272 78.0316C61.8082 78.0316 61.6915 77.999 61.5896 77.9374C61.4876 77.8757 61.4043 77.7873 61.3486 77.6817C61.2928 77.5761 61.2668 77.4572 61.2732 77.3378C61.2796 77.2184 61.3182 77.103 61.3849 77.004C63.9987 73.116 65.8815 68.7796 66.9399 64.2094C66.9597 64.1253 66.9958 64.0459 67.0461 63.9757C67.0964 63.9056 67.16 63.8461 67.2332 63.8007C67.3064 63.7552 67.3877 63.7247 67.4726 63.7109C67.5576 63.697 67.6444 63.7002 67.7281 63.72C67.8118 63.7399 67.8908 63.7762 67.9606 63.8268C68.0304 63.8773 68.0895 63.9412 68.1347 64.0148C68.18 64.0883 68.2103 64.1701 68.2241 64.2555C68.2379 64.3409 68.2348 64.4281 68.215 64.5123C67.1207 69.2383 65.1733 73.7226 62.4695 77.7424C62.4096 77.8316 62.3288 77.9046 62.2343 77.955C62.1397 78.0055 62.0343 78.0317 61.9272 78.0316Z" fill="#972D4C"/>
<path d="M58.0985 78.0218C57.9537 78.0217 57.813 77.9736 57.6981 77.8851C57.5608 77.7781 57.4712 77.6208 57.449 77.4476C57.4268 77.2744 57.4737 77.0995 57.5795 76.961C59.5599 74.3837 61.1737 71.5418 62.3746 68.5173C62.4301 68.374 62.5338 68.2548 62.6677 68.1803C62.8015 68.1058 62.9571 68.0808 63.1074 68.1096C63.2577 68.1383 63.3933 68.2191 63.4905 68.3378C63.5878 68.4565 63.6406 68.6057 63.6399 68.7595C63.6395 68.8425 63.6237 68.9247 63.5932 69.0018C62.3525 72.1398 60.683 75.0888 58.633 77.7639C58.5707 77.8465 58.4897 77.9129 58.3967 77.9578C58.3038 78.0026 58.2016 78.0246 58.0985 78.0218Z" fill="#972D4C"/>
<path d="M61.9272 78.0316C61.8082 78.0316 61.6915 77.999 61.5896 77.9374C61.4876 77.8757 61.4043 77.7873 61.3486 77.6817C61.2928 77.5761 61.2668 77.4572 61.2732 77.3378C61.2796 77.2184 61.3182 77.103 61.3849 77.004C63.9987 73.116 65.8815 68.7796 66.9399 64.2094C66.9597 64.1253 66.9958 64.0459 67.0461 63.9757C67.0964 63.9056 67.16 63.8461 67.2332 63.8007C67.3064 63.7552 67.3877 63.7247 67.4726 63.7109C67.5576 63.697 67.6444 63.7002 67.7281 63.72C67.8118 63.7399 67.8908 63.7762 67.9606 63.8268C68.0304 63.8773 68.0895 63.9412 68.1347 64.0148C68.18 64.0883 68.2103 64.1701 68.2241 64.2555C68.2379 64.3409 68.2348 64.4281 68.215 64.5123C67.1207 69.2383 65.1733 73.7226 62.4695 77.7424C62.4096 77.8316 62.3288 77.9046 62.2343 77.955C62.1397 78.0055 62.0343 78.0317 61.9272 78.0316Z" fill="#972D4C"/>
<path d="M65.5955 78.0413C65.4792 78.0413 65.3651 78.0102 65.2648 77.9513C65.1644 77.8923 65.0815 77.8075 65.0246 77.7057C64.9676 77.6039 64.9386 77.4887 64.9405 77.3719C64.9425 77.2551 64.9753 77.1409 65.0357 77.041C66.9548 73.8571 68.4413 70.4292 69.4556 66.8488C69.5074 66.6862 69.6202 66.5502 69.7699 66.4696C69.9197 66.3889 70.0948 66.3699 70.2582 66.4165C70.4217 66.4632 70.5607 66.5718 70.6459 66.7196C70.7311 66.8673 70.7559 67.0425 70.715 67.2083C69.6703 70.9032 68.1367 74.4403 66.1552 77.7248C66.0967 77.8213 66.0144 77.9011 65.9164 77.9565C65.8184 78.0119 65.7079 78.0411 65.5955 78.0413Z" fill="#972D4C"/>
<path d="M31.6648 70.1193C30.7319 70.1174 29.8332 69.7663 29.1438 69.1345C28.4544 68.5027 28.0238 67.6356 27.936 66.702C27.8481 65.7685 28.1093 64.8355 28.6686 64.0851C29.2279 63.3346 30.0452 62.8203 30.9612 62.6426C32.4356 62.3786 33.7969 61.6747 34.868 60.6225C38.2441 57.2622 37.7038 51.1942 33.6668 47.0973C32.6128 46.0225 31.3682 45.1552 29.9971 44.54C29.8384 44.469 29.7142 44.3375 29.6518 44.1745C29.5895 44.0114 29.5942 43.8302 29.6648 43.6706C29.7354 43.511 29.8662 43.3862 30.0284 43.3235C30.1906 43.2609 30.3709 43.2655 30.5297 43.3365C32.0487 44.0193 33.4281 44.9799 34.5978 46.1693C39.1441 50.7839 39.6786 57.6959 35.7912 61.5583C34.5344 62.7969 32.9351 63.6256 31.2023 63.9359C30.8872 63.9967 30.587 64.1193 30.3191 64.2967C30.0511 64.4741 29.8205 64.7028 29.6405 64.9697C29.4605 65.2367 29.3345 65.5367 29.2698 65.8526C29.2051 66.1684 29.2029 66.494 29.2634 66.8108C29.3239 67.1275 29.4459 67.4291 29.6224 67.6985C29.7988 67.9678 30.0263 68.1996 30.2919 68.3805C30.5575 68.5615 30.856 68.6881 31.1702 68.7531C31.4845 68.8182 31.8085 68.8203 32.1236 68.7595C34.8077 68.2661 37.2822 66.9727 39.2257 65.0476C45.0256 59.2726 44.5047 49.2561 38.0595 42.7211C34.8233 39.437 30.6366 37.5478 26.2731 37.4013C26.0995 37.3952 25.9354 37.3202 25.8166 37.1928C25.6979 37.0654 25.6342 36.8959 25.6395 36.7214C25.6415 36.6347 25.6606 36.5493 25.6958 36.4701C25.7311 36.3909 25.7817 36.3196 25.8446 36.2603C25.9076 36.201 25.9817 36.1549 26.0626 36.1247C26.1436 36.0945 26.2296 36.0809 26.3159 36.0845C31.0176 36.2428 35.5172 38.2707 38.9905 41.7951C45.9391 48.8459 46.4561 59.6965 40.1412 65.9834C38.0147 68.0942 35.3058 69.5134 32.3665 70.0568C32.1351 70.0998 31.9002 70.1208 31.6648 70.1193ZM32.4987 66.8137C32.3541 66.8134 32.2136 66.7652 32.0991 66.6766C31.9845 66.5879 31.9022 66.4637 31.865 66.3233C31.8514 66.2683 31.8442 66.212 31.8436 66.1553C31.844 66.0097 31.8922 65.8683 31.9808 65.7532C32.0694 65.638 32.1934 65.5554 32.3334 65.5184C34.1144 65.0604 35.7415 64.1331 37.0468 62.8321L37.0837 62.797C41.1654 58.6943 41.2432 51.8662 37.2665 46.5366C37.2058 46.4684 37.1599 46.3882 37.1318 46.3012C37.1037 46.2142 37.0939 46.1222 37.1032 46.0312C37.1124 45.9401 37.1404 45.852 37.1853 45.7725C37.2303 45.6929 37.2913 45.6237 37.3644 45.5691C37.4375 45.5146 37.5212 45.476 37.6099 45.4557C37.6987 45.4355 37.7907 45.4341 37.8801 45.4516C37.9695 45.4691 38.0542 45.5051 38.1289 45.5574C38.2037 45.6097 38.2667 45.677 38.3141 45.7552C40.4521 48.6114 41.5075 51.874 41.5075 54.994C41.5075 58.2899 40.3238 61.4313 37.9681 63.7757C36.5651 65.1767 34.8288 66.1936 32.9243 66.7297C32.8388 66.7531 32.7533 66.7785 32.6658 66.8C32.6135 66.8116 32.5599 66.8162 32.5064 66.8137H32.4987ZM35.144 44.0125C34.9918 44.0123 34.8446 43.9583 34.728 43.8601C32.5897 42.0478 29.9713 40.903 27.1944 40.5662C27.0341 40.5484 26.886 40.4718 26.7784 40.3511C26.6708 40.2303 26.6113 40.0739 26.6113 39.9118C26.6113 39.8883 26.6113 39.8629 26.6113 39.8375C26.6205 39.7511 26.6465 39.6674 26.688 39.5912C26.7294 39.515 26.7854 39.4477 26.8528 39.3933C26.9201 39.3388 26.9975 39.2983 27.0805 39.2739C27.1634 39.2496 27.2504 39.2419 27.3363 39.2514C30.3703 39.6149 33.2322 40.8624 35.5697 42.8403C35.6438 42.9024 35.7034 42.98 35.7444 43.0678C35.7854 43.1556 35.8067 43.2513 35.8068 43.3483C35.8053 43.5227 35.7355 43.6896 35.6126 43.8128C35.4896 43.936 35.3234 44.0056 35.1498 44.0066L35.144 44.0125Z" fill="#972D4C"/>
</g>
<defs>
<clipPath id="clip0_4163:153049">
<rect width="85.4931" height="91.6882" fill="white"/>
</clipPath>
<clipPath id="clip1_4163:153049">
<rect width="63.1905" height="65.0491" fill="white" transform="translate(11.1511 13.0098)"/>
</clipPath>
</defs>
</svg>
